<svg width="101" height="110" viewBox="0 0 101 110" xmlns="http://www.w3.org/2000/svg" xmlns:xlink="http://www.w3.org/1999/xlink"><defs><path d="M0 27.323C0 40.973 11.044 52.04 24.67 52.04c13.63 0 24.673-11.067 24.673-24.717 0-13.65-11.044-24.717-24.672-24.717C11.045 2.606 0 13.674 0 27.323z" id="a"/><mask id="e" x="-1.6" y="-1.6" width="52.543" height="52.634"><path fill="#fff" d="M-1.6 1.006h52.543V53.64H-1.6z"/><use xlink:href="#a"/></mask><path d="M3.615 27.12c0 11.54 9.427 20.9 21.06 20.9 11.634 0 21.062-9.36 21.062-20.9s-9.428-20.9-21.06-20.9c-11.635 0-21.062 9.36-21.062 20.9z" id="b"/><mask id="f" x="-.8" y="-.8" width="43.722" height="43.398"><path fill="#fff" d="M2.815 5.42h43.722v43.4H2.815z"/><use xlink:href="#b"/></mask><path d="M5.22 34.415C8.07 42.553 15.805 48.39 24.903 48.39c9.098 0 16.833-5.837 19.68-13.975-5.29-4.307-12.164-6.91-19.68-6.91-7.517 0-14.392 2.603-19.68 6.91z" id="c"/><mask id="g" x="-.8" y="-.8" width="40.961" height="22.484"><path fill="#fff" d="M4.42 26.706h40.962V49.19H4.422z"/><use xlink:href="#c"/></mask><path d="M27.167 31.545a3.022 3.022 0 0 1-5.104 2.994 3.022 3.022 0 0 1 2.806-4.987l11.747-10.308.56.622-10.01 11.68zm-1.755-.022a1.487 1.487 0 0 1-2.21 1.99 1.487 1.487 0 0 1 2.21-1.99" id="d"/><mask id="h" x="-1.4" y="-1.4" width="18.686" height="19.09"><path fill="#fff" d="M19.89 17.844h18.687v19.09H19.89z"/><use xlink:href="#d"/></mask></defs><g transform="translate(2 4)" fill="none" fill-rule="evenodd"><path stroke="#FE336F" stroke-width="1.4" d="M83.67 9L54.592 44.21l22.748 3.293-66.366 44.63L42.78 54.477l-21.97-3.055z"/><g transform="translate(55.025 36.34)" stroke="#2897C5"><path d="M42.877 28.08c0-3.774-9.598-6.832-21.438-6.832C9.597 21.248 0 24.306 0 28.078v6.832c0 3.773 9.598 6.83 21.44 6.83 11.84 0 21.437-3.057 21.437-6.83v-6.83z" stroke-width="1.6" fill="#FFF"/><ellipse stroke-width="1.6" fill="#FFF" cx="21.439" cy="27.881" rx="20.862" ry="6.647"/><path d="M42.877 28.08c0-3.774-9.598-6.832-21.438-6.832C9.597 21.248 0 24.306 0 28.078v6.832c0 3.773 9.598 6.83 21.44 6.83 11.84 0 21.437-3.057 21.437-6.83v-6.83z" stroke-width="1.6" fill="#FFF"/><ellipse stroke-opacity=".333" stroke-width=".8" cx="21.439" cy="28.073" rx="21.238" ry="6.767"/><path d="M42.877 17.672c0-3.773-9.598-6.83-21.438-6.83C9.597 10.84 0 13.898 0 17.67v6.83c0 3.774 9.598 6.832 21.44 6.832 11.84 0 21.437-3.058 21.437-6.83V17.67z" stroke-width="1.6" fill="#FFF"/><ellipse stroke-opacity=".333" stroke-width=".8" cx="21.439" cy="17.666" rx="21.238" ry="6.767"/><path d="M42.877 6.83C42.877 3.06 33.28 0 21.44 0 9.597 0 0 3.058 0 6.83v6.832c0 3.773 9.598 6.83 21.44 6.83 11.84 0 21.437-3.057 21.437-6.83v-6.83z" stroke-width="1.6" fill="#FFF"/><ellipse stroke-opacity=".333" stroke-width=".8" cx="21.439" cy="6.825" rx="21.238" ry="6.767"/></g><use fill="#FFF" xlink:href="#a"/><use stroke="#2897C5" mask="url(#e)" stroke-width="3.2" xlink:href="#a"/><use stroke="#2897C5" mask="url(#f)" stroke-width="1.6" xlink:href="#b"/><use stroke="#2897C5" mask="url(#g)" stroke-width="1.6" opacity=".276" xlink:href="#c"/><path d="M9.127 20.302l-1.098-.596-.338-.182.373-.658.336.182 1.275.69c-.186.185-.37.372-.548.564zm7.338-5.07l-1.662-2.816-.193-.326.666-.376.193.325 1.717 2.91c-.243.09-.483.183-.722.282zm7.74-1.612V9.415h.77v4.204a21.966 21.966 0 0 0-.77.002zm7.58 1.206l1.578-2.78.186-.33.67.365-.185.33-1.523 2.687c-.24-.095-.482-.185-.726-.27zm7.474 4.547l1.236-.698.333-.188.383.652-.333.187-1.058.597c-.184-.187-.372-.37-.563-.55z" fill="#2897C5"/><g><use fill="#FFF" xlink:href="#d"/><use stroke="#FE336F" mask="url(#h)" stroke-width="2.8" xlink:href="#d"/></g></g></svg>